<svg xmlns="http://www.w3.org/2000/svg" width="16" height="16" viewBox="0 0 16 16" role="img" aria-label="TLV flights info favicon">
  <rect x="0" y="0" width="16" height="16" rx="3" fill="#0b5bd3"/>
  <path d="M2 9.6L12.2 4.1c.5-.3 1 .2.7.7L9.9 9.2l2.2 1.4c.3.2.2.7-.2.7H9.6L7.8 14l-1.2-.3.8-2.4-2-.1c-.3 0-.5-.4-.3-.7L6.8 8.7 2.6 10c-.5.2-.9-.2-.6-.4z" fill="#ffffff"/>
  <circle cx="13" cy="13" r="2" fill="#f7c948"/>
  <rect x="12.75" y="11.8" width="0.5" height="1.5" fill="#102a43"/>
  <circle cx="13" cy="13.9" r="0.35" fill="#102a43"/>
</svg>
